<svg width="45" height="15" viewBox="0 0 45 15" fill="none" xmlns="http://www.w3.org/2000/svg">
<path d="M16.8147 0.257486L11.0862 14.3604H7.30363L4.39556 3.10582C4.21896 2.41261 4.06711 2.15865 3.53889 1.8666C2.67673 1.39066 1.25424 0.944586 0.00326245 0.667583L0.0861364 0.257721L6.1749 0.257721C6.95102 0.257721 7.65129 0.784451 7.83195 1.69565L9.37863 9.8562L13.0557 0.257486L16.8147 0.257486ZM31.6821 9.75579C31.6791 6.03364 26.6146 5.82859 26.6413 4.16587C26.6496 3.65983 27.1196 3.12181 28.1534 2.98449C28.6657 2.91606 30.0782 2.86386 31.6841 3.61562L32.298 0.625021C31.4355 0.306632 30.3262 0 28.9479 0C25.4109 0 22.9312 1.91692 22.9236 4.66179C22.9107 6.69206 24.7157 7.82499 26.0748 8.49963C27.4728 9.19049 27.943 9.63445 27.9407 10.2524C27.9354 11.1984 26.835 11.616 25.8048 11.6325C24.0063 11.6607 22.9601 11.1363 22.1263 10.742L21.4928 13.8316C22.3308 14.2226 23.8757 14.5638 25.4757 14.581C29.235 14.5808 31.6849 12.6878 31.6821 9.75579ZM41.0443 14.3604H44.3538L41.396 0.257486L38.3414 0.257486C37.6545 0.257486 37.0772 0.665232 36.8237 1.29213L31.5178 14.3604H35.2752L36.011 12.2538L40.602 12.2538L41.0443 14.3604ZM37.0272 9.36333L38.8847 4.06828L39.9946 9.36333H37.0272ZM21.9276 0.257486L19.0376 14.3604H15.4594L18.3506 0.257486L21.9276 0.257486Z" fill="white"/>
</svg>
