<svg width="32" height="34" viewBox="0 0 32 34" fill="none" xmlns="http://www.w3.org/2000/svg">
<path d="M24.1375 10.8852C23.9303 10.6651 23.6396 10.5651 23.3552 10.6163C23.0702 10.6672 22.824 10.8628 22.6918 11.1434C22.2372 12.1089 21.6596 12.9961 20.9801 13.7805C21.0479 13.2139 21.082 12.6439 21.082 12.0724C21.082 10.9759 20.9475 9.84742 20.6822 8.71805C19.8099 5.00853 17.5225 1.87144 14.4067 0.111205C14.1354 -0.0419942 13.8122 -0.0366153 13.5453 0.125549C13.2784 0.287779 13.1036 0.585213 13.0797 0.917908C12.8368 4.28895 11.2482 7.35586 8.71875 9.33424C8.68528 9.3606 8.65205 9.38729 8.61881 9.41386C8.54998 9.46891 8.48509 9.52097 8.42446 9.56467C8.41498 9.57157 8.40556 9.57861 8.39633 9.58585C6.80553 10.8308 5.49292 12.4903 4.60026 14.3854C3.69319 16.3131 3.23328 18.3818 3.23328 20.5337C3.23328 21.6299 3.36773 22.7583 3.63292 23.8879C5.0324 29.8417 9.93433 33.9999 15.5535 33.9999C22.3466 33.9999 27.8731 27.9589 27.8731 20.5337C27.8731 16.872 26.5464 13.4454 24.1375 10.8852V10.8852Z" fill="#FF5555"/>
<ellipse cx="14.6383" cy="20" rx="3.65957" ry="4" fill="white"/>
</svg>
