<svg width="1676" height="4912" viewBox="0 0 1676 4912" fill="none" xmlns="http://www.w3.org/2000/svg">
<path d="M1535 0L1536.5 29.9289L1565.43 22.1115L1537.43 32.7911L1553.81 57.8885L1535 34.56L1516.19 57.8885L1532.57 32.7911L1504.57 22.1115L1533.5 29.9289L1535 0Z" fill="black"/>
<path d="M1114.78 679.569L1102.58 660.694L1086.73 676.62L1100.91 659.184L1080.86 649.023L1101.82 657.122L1105.29 634.916L1104.07 657.358L1126.26 653.795L1104.54 659.566L1114.78 679.569Z" fill="black"/>
<path d="M50.9117 75.9706L35.8375 92.6408L55.3253 103.837L34.8128 94.6519L30.1867 116.646L32.5835 94.2988L10.2366 96.6956L32.2304 92.0695L23.0454 71.557L34.2415 91.0448L50.9117 75.9706Z" fill="black"/>
<path d="M321.912 528.971L306.838 545.641L326.325 556.837L305.813 547.652L301.187 569.646L303.584 547.299L281.237 549.696L303.23 545.069L294.045 524.557L305.242 544.045L321.912 528.971Z" fill="black"/>
<path d="M50.9117 1030.68L35.8375 1047.35L55.3253 1058.55L34.8128 1049.36L30.1867 1071.35L32.5835 1049.01L10.2366 1051.4L32.2304 1046.78L23.0454 1026.27L34.2415 1045.75L50.9117 1030.68Z" fill="black"/>
<path d="M1644 1602.71L1645.5 1632.64L1674.43 1624.82L1646.43 1635.5L1662.81 1660.6L1644 1637.27L1625.19 1660.6L1641.57 1635.5L1613.57 1624.82L1642.5 1632.64L1644 1602.71Z" fill="black"/>
<path d="M767.912 2189.68L752.837 2206.35L772.325 2217.55L751.813 2208.36L747.187 2230.35L749.583 2208.01L727.237 2210.4L749.23 2205.78L740.045 2185.27L751.241 2204.75L767.912 2189.68Z" fill="black"/>
<path d="M1374 2804.71L1375.5 2834.64L1404.43 2826.82L1376.43 2837.5L1392.81 2862.6L1374 2839.27L1355.19 2862.6L1371.57 2837.5L1343.57 2826.82L1372.5 2834.64L1374 2804.71Z" fill="black"/>
<path d="M933 3884.71L934.505 3914.64L963.434 3906.82L935.435 3917.5L951.809 3942.6L933 3919.27L914.191 3942.6L930.565 3917.5L902.566 3906.82L931.495 3914.64L933 3884.71Z" fill="black"/>
<path d="M1597 4632.71L1598.51 4662.64L1627.43 4654.82L1599.44 4665.5L1615.81 4690.6L1597 4667.27L1578.19 4690.6L1594.57 4665.5L1566.57 4654.82L1595.5 4662.64L1597 4632.71Z" fill="black"/>
<path d="M52.9117 3662.68L37.8375 3679.35L57.3253 3690.55L36.8128 3681.36L32.1867 3703.35L34.5835 3681.01L12.2366 3683.4L34.2304 3678.78L25.0454 3658.27L36.2415 3677.75L52.9117 3662.68Z" fill="black"/>
<path d="M52.9117 4860.68L37.8375 4877.35L57.3253 4888.55L36.8128 4879.36L32.1867 4901.35L34.5835 4879.01L12.2366 4881.4L34.2304 4876.78L25.0454 4856.27L36.2415 4875.75L52.9117 4860.68Z" fill="black"/>
</svg>
