<svg width="32" height="15" viewBox="0 0 32 15" fill="none" xmlns="http://www.w3.org/2000/svg">
<path d="M3.20293 11.6516C3.69939 11.6516 4.13812 11.5609 4.51913 11.3795C4.90009 11.1885 5.18988 10.9021 5.38851 10.5202L5.3932 11.4797L7.39814 11.4797L7.35993 3.66055L5.21178 3.66055L5.2341 8.22889C5.2363 8.67761 5.10441 9.04041 4.83843 9.31728C4.57242 9.5846 4.22936 9.71826 3.80928 9.71826C3.3892 9.71826 3.04484 9.5846 2.77621 9.31728C2.50753 9.04041 2.3721 8.67761 2.3699 8.22889L2.34758 3.66055L0.199429 3.66055L0.222594 8.40074C0.227353 9.37456 0.484206 10.1622 0.993154 10.7637C1.5116 11.3556 2.24819 11.6516 3.20293 11.6516Z" fill="white"/>
<path d="M8.92655 2.95883L11.0747 2.95883L11.0642 0.810704L8.91605 0.810704L8.92655 2.95883ZM8.96819 11.4797H11.1163L11.0781 3.66055L8.92998 3.66055L8.96819 11.4797Z" fill="white"/>
<path d="M13.6335 11.4797H15.7816L15.7525 5.52226H17.4281L17.419 3.66055H15.7434L15.7429 3.54598C15.7395 2.84904 16.1435 2.50056 16.955 2.50056C17.0887 2.50056 17.2463 2.51488 17.4278 2.54353L17.4189 0.710459C17.1991 0.662723 16.9459 0.638855 16.6595 0.638855C15.6857 0.638855 14.9279 0.891856 14.3862 1.39786C13.854 1.90386 13.5902 2.6199 13.5947 3.54598L13.5953 3.66055H12.2777L12.2868 5.52226L13.6044 5.52226L13.6335 11.4797Z" fill="white"/>
<path d="M18.5621 11.4797H20.7103L20.6897 7.2694C20.6869 6.68702 20.847 6.2383 21.17 5.92324C21.4931 5.59863 21.9171 5.43633 22.4422 5.43633H23.1153L23.1062 3.57462L22.648 3.57462C22.1706 3.57462 21.7462 3.66532 21.3747 3.84672C21.0128 4.01857 20.7327 4.34795 20.5346 4.83486L20.5289 3.66055L18.5239 3.66055L18.5621 11.4797Z" fill="white"/>
<path d="M25.3192 14.6589C26.7513 14.6589 27.7832 13.8427 28.4149 12.2101L31.7242 3.66055L29.4185 3.66055L27.5957 8.68716L25.7237 3.66055L23.418 3.66055L26.5352 11.4797L26.3936 11.8091C26.2803 12.0669 26.1335 12.296 25.953 12.4965C25.7726 12.697 25.4724 12.7972 25.0523 12.7972C24.7086 12.7972 24.3838 12.7495 24.0778 12.654L24.0864 14.4155C24.2491 14.5014 24.4356 14.5635 24.6458 14.6017C24.8656 14.6399 25.09 14.6589 25.3192 14.6589Z" fill="white"/>
</svg>
