<svg width="62" height="30" viewBox="0 0 62 30" fill="none" xmlns="http://www.w3.org/2000/svg">
<path d="M6.60022 23.1301C7.54799 23.1301 8.3864 22.9408 9.11546 22.5623C9.84451 22.1639 10.4004 21.5662 10.7832 20.7693V22.7715H14.6107V6.45552H10.5098V15.9881C10.5098 16.9244 10.2546 17.6815 9.74427 18.2592C9.23393 18.817 8.57778 19.0959 7.77582 19.0959C6.97386 19.0959 6.31772 18.817 5.80738 18.2592C5.29704 17.6815 5.04187 16.9244 5.04187 15.9881V6.45552H0.940948V16.3467C0.940948 18.3787 1.42395 20.0223 2.38994 21.2773C3.37416 22.5125 4.77759 23.1301 6.60022 23.1301Z" fill="black"/>
<path d="M17.608 4.99127H21.7089V0.50886H17.608V4.99127ZM17.608 22.7715H21.7089V6.45552H17.608V22.7715Z" fill="black"/>
<path d="M26.5143 22.7715H30.6152V10.3403H33.8139V6.45552H30.6152V6.21646C30.6152 4.76217 31.3898 4.03502 32.9391 4.03502C33.1942 4.03502 33.495 4.0649 33.8413 4.12467V0.299682C33.422 0.200073 32.9391 0.150269 32.3923 0.150269C30.5332 0.150269 29.0842 0.678196 28.0453 1.73405C27.0246 2.78991 26.5143 4.28404 26.5143 6.21646V6.45552H23.999V10.3403H26.5143V22.7715Z" fill="black"/>
<path d="M35.9233 22.7715H40.0243V13.986C40.0243 12.7707 40.3341 11.8344 40.9538 11.177C41.5735 10.4996 42.3846 10.161 43.387 10.161H44.672V6.27622H43.7971C42.8858 6.27622 42.0747 6.46548 41.3639 6.84399C40.6713 7.20259 40.1336 7.88989 39.7509 8.9059V6.45552H35.9233V22.7715Z" fill="black"/>
<path d="M48.7932 29.4054C51.5271 29.4054 53.5047 27.7021 54.7259 24.2955L61.1233 6.45552H56.7216L53.1948 16.9443L49.668 6.45552H45.2664L51.1444 22.7715L50.871 23.4588C50.6523 23.9967 50.3698 24.4748 50.0235 24.8931C49.6772 25.3115 49.103 25.5207 48.3011 25.5207C47.6449 25.5207 47.0252 25.4211 46.442 25.2219V28.8974C46.7518 29.0767 47.1072 29.2062 47.5082 29.2859C47.9274 29.3656 48.3557 29.4054 48.7932 29.4054Z" fill="black"/>
</svg>
