<svg width="45" height="15" fill="none" xmlns="http://www.w3.org/2000/svg"><path d="M16.815.257 11.086 14.36H7.304L4.396 3.106c-.177-.693-.329-.947-.857-1.24C2.677 1.392 1.254.946.003.669l.083-.41h6.089c.776 0 1.476.526 1.657 1.438l1.547 8.16L13.056.257h3.759Zm14.867 9.499c-.003-3.722-5.067-3.927-5.04-5.59.008-.506.478-1.044 1.511-1.182.513-.068 1.925-.12 3.531.632l.614-2.991C31.435.307 30.326 0 28.948 0c-3.537 0-6.017 1.917-6.024 4.662-.013 2.03 1.792 3.163 3.15 3.838 1.399.69 1.869 1.134 1.867 1.752-.006.946-1.106 1.364-2.136 1.38-1.799.029-2.845-.496-3.679-.89l-.633 3.09c.838.39 2.383.732 3.983.749 3.759 0 6.209-1.893 6.206-4.825Zm9.362 4.604h3.31L41.396.257h-3.055c-.687 0-1.264.408-1.517 1.035L31.518 14.36h3.757l.736-2.106h4.591l.442 2.106Zm-4.017-4.997 1.858-5.295 1.11 5.295h-2.968ZM21.927.257l-2.89 14.103H15.46L18.351.257h3.577Z" fill="#fff"/></svg>