<svg width="34" height="35" fill="none" xmlns="http://www.w3.org/2000/svg"><g clip-path="url('#clip0_101_454')"><path d="M26.383 11.594a.996.996 0 0 0-1.58.258 11.476 11.476 0 0 1-1.871 2.637c.074-.566.111-1.136.111-1.708 0-1.096-.147-2.225-.437-3.354A13.476 13.476 0 0 0 15.746.82a.996.996 0 0 0-1.45.807 11.437 11.437 0 0 1-4.766 8.416l-.11.08c-.075.055-.146.107-.212.15l-.03.022a13.572 13.572 0 0 0-4.15 4.8 13.32 13.32 0 0 0-1.494 6.148c0 1.096.147 2.224.437 3.354A13.452 13.452 0 0 0 17 34.709c7.424 0 13.465-6.041 13.465-13.466 0-3.662-1.45-7.089-4.083-9.649Z" fill="#F55"/><circle cx="16" cy="20.709" r="4" fill="#fff"/></g><defs><clipPath id="clip0_101_454"><path fill="#fff" transform="translate(0 .709)" d="M0 0h34v34H0z"/></clipPath></defs></svg>