<svg width="32" height="34" fill="none" xmlns="http://www.w3.org/2000/svg"><path d="M24.137 10.885a.863.863 0 0 0-.782-.269.922.922 0 0 0-.663.527 11.523 11.523 0 0 1-1.712 2.637c.068-.566.102-1.136.102-1.708 0-1.096-.134-2.225-.4-3.354-.872-3.71-3.16-6.847-6.275-8.607a.844.844 0 0 0-.862.015c-.267.162-.441.46-.465.792-.243 3.371-1.832 6.438-4.361 8.416l-.1.08c-.069.055-.134.107-.195.15a.98.98 0 0 0-.028.022c-1.59 1.245-2.903 2.904-3.796 4.8a14.331 14.331 0 0 0-1.367 6.148c0 1.096.135 2.224.4 3.354C5.033 29.842 9.934 34 15.553 34c6.794 0 12.32-6.041 12.32-13.466 0-3.662-1.327-7.089-3.736-9.649Z" fill="#F55"/><ellipse cx="14.638" cy="20" rx="3.66" ry="4" fill="#fff"/></svg>