<svg width="1676" height="4912" fill="none" xmlns="http://www.w3.org/2000/svg"><path d="m1535 0 1.5 29.929 28.93-7.817-28 10.68 16.38 25.096L1535 34.56l-18.81 23.328 16.38-25.097-28-10.68 28.93 7.818L1535 0ZM1114.78 679.569l-12.2-18.875-15.85 15.926 14.18-17.436-20.05-10.161 20.96 8.099 3.47-22.206-1.22 22.442 22.19-3.563-21.72 5.771 10.24 20.003ZM50.912 75.97 35.837 92.64l19.488 11.197-20.512-9.185-4.626 21.994 2.396-22.347-22.346 2.397L32.23 92.07l-9.185-20.513 11.197 19.488 16.67-15.074ZM321.912 528.971l-15.074 16.67 19.487 11.196-20.512-9.185-4.626 21.994 2.397-22.347-22.347 2.397 21.993-4.627-9.185-20.512 11.197 19.488 16.67-15.074ZM50.912 1030.68l-15.075 16.67 19.488 11.2-20.512-9.19-4.626 21.99 2.396-22.34-22.346 2.39 21.993-4.62-9.185-20.51 11.197 19.48 16.67-15.07ZM1644 1602.71l1.5 29.93 28.93-7.82-28 10.68 16.38 25.1-18.81-23.33-18.81 23.33 16.38-25.1-28-10.68 28.93 7.82 1.5-29.93ZM767.912 2189.68l-15.075 16.67 19.488 11.2-20.512-9.19-4.626 21.99 2.396-22.34-22.346 2.39 21.993-4.62-9.185-20.51 11.196 19.48 16.671-15.07ZM1374 2804.71l1.5 29.93 28.93-7.82-28 10.68 16.38 25.1-18.81-23.33-18.81 23.33 16.38-25.1-28-10.68 28.93 7.82 1.5-29.93ZM933 3884.71l1.505 29.93 28.929-7.82-27.999 10.68 16.374 25.1L933 3919.27l-18.809 23.33 16.374-25.1-27.999-10.68 28.929 7.82 1.505-29.93ZM1597 4632.71l1.51 29.93 28.92-7.82-27.99 10.68 16.37 25.1-18.81-23.33-18.81 23.33 16.38-25.1-28-10.68 28.93 7.82 1.5-29.93ZM52.912 3662.68l-15.075 16.67 19.488 11.2-20.512-9.19-4.626 21.99 2.397-22.34-22.347 2.39 21.993-4.62-9.185-20.51 11.197 19.48 16.67-15.07ZM52.912 4860.68l-15.075 16.67 19.488 11.2-20.512-9.19-4.626 21.99 2.397-22.34-22.347 2.39 21.993-4.62-9.185-20.51 11.197 19.48 16.67-15.07Z" fill="#000"/></svg>