<svg width="62" height="30" fill="none" xmlns="http://www.w3.org/2000/svg"><path d="M6.6 23.13c.948 0 1.786-.19 2.515-.568.73-.398 1.285-.996 1.668-1.793v2.003h3.828V6.456H10.51v9.532c0 .936-.255 1.694-.766 2.271-.51.558-1.166.837-1.968.837s-1.458-.279-1.969-.837c-.51-.578-.765-1.335-.765-2.27V6.455H.94v9.89c0 2.033.483 3.676 1.449 4.931.984 1.235 2.388 1.853 4.21 1.853ZM17.608 4.991h4.1V.51h-4.1V4.99Zm0 17.78h4.1V6.456h-4.1v16.316ZM26.514 22.771h4.101v-12.43h3.199V6.455h-3.199v-.24c0-1.454.775-2.181 2.324-2.181.255 0 .556.03.902.09V.3c-.419-.1-.902-.15-1.449-.15-1.859 0-3.308.528-4.347 1.584-1.02 1.056-1.53 2.55-1.53 4.482v.24h-2.516v3.884h2.515v12.431ZM35.923 22.771h4.101v-8.785c0-1.215.31-2.152.93-2.809.62-.677 1.43-1.016 2.433-1.016h1.285V6.276h-.875c-.911 0-1.722.19-2.433.568-.693.359-1.23 1.046-1.613 2.062v-2.45h-3.828v16.316ZM48.793 29.405c2.734 0 4.712-1.703 5.933-5.11l6.397-17.84h-4.401l-3.527 10.49-3.527-10.49h-4.402l5.878 16.316-.273.688a5.45 5.45 0 0 1-.848 1.434c-.346.418-.92.628-1.722.628-.656 0-1.276-.1-1.859-.3v3.676c.31.18.665.31 1.066.389.42.08.848.12 1.285.12Z" fill="#000"/></svg>