<svg width="32" height="15" fill="none" xmlns="http://www.w3.org/2000/svg"><path d="M3.203 11.652c.496 0 .935-.091 1.316-.272.381-.192.67-.478.87-.86l.004.96h2.005L7.36 3.66H5.212l.022 4.569c.002.449-.13.811-.396 1.088-.266.268-.609.401-1.029.401-.42 0-.764-.133-1.033-.4-.268-.278-.404-.64-.406-1.09l-.022-4.567H.199L.223 8.4c.004.974.261 1.761.77 2.363.519.592 1.255.888 2.21.888ZM8.927 2.959h2.148L11.065.81H8.915l.01 2.148Zm.041 8.52h2.148l-.038-7.818H8.93l.038 7.819ZM13.633 11.48h2.149l-.03-5.958h1.676l-.009-1.861h-1.676v-.115c-.004-.697.4-1.045 1.212-1.045.134 0 .291.014.473.043L17.418.71A3.603 3.603 0 0 0 16.66.64c-.974 0-1.732.253-2.274.759-.532.506-.796 1.222-.791 2.148v.115h-1.317l.009 1.861h1.317l.03 5.958ZM18.562 11.48h2.148l-.02-4.21c-.003-.583.157-1.032.48-1.347.323-.324.747-.487 1.272-.487h.673l-.009-1.861h-.458c-.477 0-.902.09-1.273.272-.362.172-.642.501-.84.988l-.006-1.174h-2.005l.038 7.819ZM25.32 14.659c1.431 0 2.463-.816 3.095-2.449l3.31-8.55h-2.306l-1.823 5.027-1.872-5.026h-2.306l3.117 7.819-.141.33c-.114.257-.26.486-.441.686-.18.201-.48.301-.9.301-.344 0-.67-.048-.975-.143l.008 1.761c.163.086.35.149.56.187.22.038.444.057.673.057Z" fill="#fff"/></svg>